REM DIRINDEX 1\2\4,1\2\5,1\2\6,1\3\7,1\3\8,1\3\9,1\3\10
REM DIRNAME folder01,folder02,folder03,folder04,folder05,folder06,folder07,folder08,folder09,folder10
TITLE ""
FILE "b_033.mp3" MP3
  TRACK 01 AUDIO
    TITLE "0:"
    INDEX 01 00:00:00
  TRACK 02 AUDIO
    TITLE "7:cjc057_05183"
    INDEX 01 00:00:15
  TRACK 03 AUDIO
    TITLE "0:"
    INDEX 01 00:01:40
  TRACK 04 AUDIO
    TITLE "8:cjc057_05184"
    INDEX 01 00:01:69
  TRACK 05 AUDIO
    TITLE "0:"
    INDEX 01 00:03:37
  TRACK 06 AUDIO
    TITLE "9:cjc057_05185"
    INDEX 01 00:04:05
  TRACK 07 AUDIO
    TITLE "0:"
    INDEX 01 00:07:49
  TRACK 08 AUDIO
    TITLE "7:cjc057_05186"
    INDEX 01 00:08:48
  TRACK 09 AUDIO
    TITLE "0:"
    INDEX 01 00:10:00
  TRACK 10 AUDIO
    TITLE "8:cjc057_05187"
    INDEX 01 00:10:25
  TRACK 11 AUDIO
    TITLE "0:"
    INDEX 01 00:12:54
  TRACK 12 AUDIO
    TITLE "9:cjc057_05188"
    INDEX 01 00:13:24
  TRACK 13 AUDIO
    TITLE "0:"
    INDEX 01 00:17:45
  TRACK 14 AUDIO
    TITLE "7:cjc057_05189"
    INDEX 01 00:18:46
  TRACK 15 AUDIO
    TITLE "0:"
    INDEX 01 00:19:60
  TRACK 16 AUDIO
    TITLE "8:cjc057_05190"
    INDEX 01 00:20:16
  TRACK 17 AUDIO
    TITLE "0:"
    INDEX 01 00:22:60
  TRACK 18 AUDIO
    TITLE "9:cjc057_05191"
    INDEX 01 00:23:24
  TRACK 19 AUDIO
    TITLE "0:"
    INDEX 01 00:25:60
  TRACK 20 AUDIO
    TITLE "7:cjc057_05192"
    INDEX 01 00:26:64
  TRACK 21 AUDIO
    TITLE "0:"
    INDEX 01 00:28:15
  TRACK 22 AUDIO
    TITLE "8:cjc057_05193"
    INDEX 01 00:28:45
  TRACK 23 AUDIO
    TITLE "0:"
    INDEX 01 00:30:12
  TRACK 24 AUDIO
    TITLE "9:cjc057_05194"
    INDEX 01 00:30:52
  TRACK 25 AUDIO
    TITLE "0:"
    INDEX 01 00:34:28
  TRACK 26 AUDIO
    TITLE "7:cjc057_05195"
    INDEX 01 00:35:29
  TRACK 27 AUDIO
    TITLE "0:"
    INDEX 01 00:36:54
  TRACK 28 AUDIO
    TITLE "8:cjc057_05196"
    INDEX 01 00:37:10
  TRACK 29 AUDIO
    TITLE "0:"
    INDEX 01 00:38:51
  TRACK 30 AUDIO
    TITLE "9:cjc057_05197"
    INDEX 01 00:39:19
  TRACK 31 AUDIO
    TITLE "0:"
    INDEX 01 00:42:12
  TRACK 32 AUDIO
    TITLE "7:cjc057_05198"
    INDEX 01 00:43:17
  TRACK 33 AUDIO
    TITLE "0:"
    INDEX 01 00:44:36
  TRACK 34 AUDIO
    TITLE "8:cjc057_05199"
    INDEX 01 00:44:65
  TRACK 35 AUDIO
    TITLE "0:"
    INDEX 01 00:47:01
  TRACK 36 AUDIO
    TITLE "9:cjc057_05200"
    INDEX 01 00:47:42
  TRACK 37 AUDIO
    TITLE "0:"
    INDEX 01 00:50:27
  TRACK 38 AUDIO
    TITLE "7:cjc057_05201"
    INDEX 01 00:51:32
  TRACK 39 AUDIO
    TITLE "0:"
    INDEX 01 00:52:45
  TRACK 40 AUDIO
    TITLE "8:cjc057_05202"
    INDEX 01 00:53:00
  TRACK 41 AUDIO
    TITLE "0:"
    INDEX 01 00:55:08
  TRACK 42 AUDIO
    TITLE "9:cjc057_05203"
    INDEX 01 00:55:48
  TRACK 43 AUDIO
    TITLE "0:"
    INDEX 01 00:59:45
  TRACK 44 AUDIO
    TITLE "7:cjc057_05204"
    INDEX 01 01:00:47
  TRACK 45 AUDIO
    TITLE "0:"
    INDEX 01 01:01:66
  TRACK 46 AUDIO
    TITLE "8:cjc057_05205"
    INDEX 01 01:02:20
  TRACK 47 AUDIO
    TITLE "0:"
    INDEX 01 01:04:31
  TRACK 48 AUDIO
    TITLE "9:cjc057_05206"
    INDEX 01 01:04:72
  TRACK 49 AUDIO
    TITLE "0:"
    INDEX 01 01:08:33
  TRACK 50 AUDIO
    TITLE "7:cjc057_05207"
    INDEX 01 01:09:36
  TRACK 51 AUDIO
    TITLE "0:"
    INDEX 01 01:10:63
  TRACK 52 AUDIO
    TITLE "8:cjc057_05208"
    INDEX 01 01:11:19
  TRACK 53 AUDIO
    TITLE "0:"
    INDEX 01 01:12:60
  TRACK 54 AUDIO
    TITLE "9:cjc057_05209"
    INDEX 01 01:13:24
  TRACK 55 AUDIO
    TITLE "0:"
    INDEX 01 01:16:42
  TRACK 56 AUDIO
    TITLE "7:cjc057_05210"
    INDEX 01 01:17:45
  TRACK 57 AUDIO
    TITLE "0:"
    INDEX 01 01:18:72
  TRACK 58 AUDIO
    TITLE "8:cjc057_05211"
    INDEX 01 01:19:25
  TRACK 59 AUDIO
    TITLE "0:"
    INDEX 01 01:20:63
  TRACK 60 AUDIO
    TITLE "9:cjc057_05212"
    INDEX 01 01:21:27
  TRACK 61 AUDIO
    TITLE "0:"
    INDEX 01 01:25:00
  TRACK 62 AUDIO
    TITLE "7:cjc057_05213"
    INDEX 01 01:26:05
  TRACK 63 AUDIO
    TITLE "0:"
    INDEX 01 01:27:16
  TRACK 64 AUDIO
    TITLE "8:cjc057_05214"
    INDEX 01 01:27:44
  TRACK 65 AUDIO
    TITLE "0:"
    INDEX 01 01:29:15
  TRACK 66 AUDIO
    TITLE "9:cjc057_05215"
    INDEX 01 01:29:52
  TRACK 67 AUDIO
    TITLE "0:"
    INDEX 01 01:33:07
  TRACK 68 AUDIO
    TITLE "7:cjc057_05216"
    INDEX 01 01:34:12
  TRACK 69 AUDIO
    TITLE "0:"
    INDEX 01 01:35:39
  TRACK 70 AUDIO
    TITLE "8:cjc057_05217"
    INDEX 01 01:35:69
  TRACK 71 AUDIO
    TITLE "0:"
    INDEX 01 01:37:03
  TRACK 72 AUDIO
    TITLE "9:cjc057_05218"
    INDEX 01 01:37:46
  TRACK 73 AUDIO
    TITLE "0:"
    INDEX 01 01:40:09
  TRACK 74 AUDIO
    TITLE "7:cjc057_05219"
    INDEX 01 01:41:14
  TRACK 75 AUDIO
    TITLE "0:"
    INDEX 01 01:42:22
  TRACK 76 AUDIO
    TITLE "8:cjc057_05220"
    INDEX 01 01:42:51
  TRACK 77 AUDIO
    TITLE "0:"
    INDEX 01 01:44:15
  TRACK 78 AUDIO
    TITLE "9:cjc057_05221"
    INDEX 01 01:44:58
  TRACK 79 AUDIO
    TITLE "0:"
    INDEX 01 01:48:42
